<svg xmlns="http://www.w3.org/2000/svg" viewBox="0 0 64 64">
  <!-- Background -->
  <rect width="64" height="64" fill="#1a1a2e" rx="8"/>
  
  <!-- Castle/Dungeon structure -->
  <!-- Base -->
  <rect x="16" y="40" width="32" height="18" fill="#2c3e50" stroke="#34495e" stroke-width="1"/>
  
  <!-- Left tower -->
  <rect x="14" y="28" width="10" height="12" fill="#34495e" stroke="#4a6073" stroke-width="1"/>
  <rect x="13" y="26" width="3" height="4" fill="#4a6073"/>
  <rect x="18" y="26" width="3" height="4" fill="#4a6073"/>
  
  <!-- Right tower -->
  <rect x="40" y="28" width="10" height="12" fill="#34495e" stroke="#4a6073" stroke-width="1"/>
  <rect x="39" y="26" width="3" height="4" fill="#4a6073"/>
  <rect x="44" y="26" width="3" height="4" fill="#4a6073"/>
  
  <!-- Center gate/entrance -->
  <rect x="26" y="44" width="12" height="14" fill="#1a1a2e" stroke="#e94560" stroke-width="1.5" rx="6" ry="6"/>
  
  <!-- Gate details -->
  <line x1="29" y1="46" x2="29" y2="56" stroke="#e94560" stroke-width="1"/>
  <line x1="32" y1="46" x2="32" y2="56" stroke="#e94560" stroke-width="1"/>
  <line x1="35" y1="46" x2="35" y2="56" stroke="#e94560" stroke-width="1"/>
  
  <!-- Windows -->
  <rect x="20" y="32" width="4" height="4" fill="#f39c12" opacity="0.8"/>
  <rect x="40" y="32" width="4" height="4" fill="#f39c12" opacity="0.8"/>
  
  <!-- Top decorative elements -->
  <polygon points="24,28 24,22 20,24" fill="#e94560"/>
  <polygon points="40,28 40,22 44,24" fill="#e94560"/>
  
  <!-- Sword icon (for idle game theme) -->
  <g transform="translate(32, 16)">
    <rect x="-1" y="-8" width="2" height="12" fill="#95a5a6" stroke="#7f8c8d" stroke-width="0.5"/>
    <polygon points="-3,-8 0,-12 3,-8" fill="#95a5a6" stroke="#7f8c8d" stroke-width="0.5"/>
    <rect x="-2" y="4" width="4" height="2" fill="#f39c12" stroke="#e67e22" stroke-width="0.5"/>
  </g>
</svg>